<?xml version="1.0" encoding="UTF-8" standalone="no"?>
<!DOCTYPE svg PUBLIC "-//W3C//DTD SVG 1.1//EN" "http://www.w3.org/Graphics/SVG/1.1/DTD/svg11.dtd">
<svg xmlns="http://www.w3.org/2000/svg" xmlns:xlink="http://www.w3.org/1999/xlink" version="1.1" width="63.238pt" height="71.591pt" viewBox="0 0 63.238 71.591">
<symbol id="font_0_1">
<path d="M .14400001 .115 C .10400002 .048 .065 .034 .021000002 .031000002 C .009000003 .030000002 0 .030000002 0 .011000001 C 0 .0050000005 .0050000029 0 .013 0 C .040000004 0 .07100001 .003 .09900001 .003 C .13200002 .003 .16700001 0 .19900002 0 C .20500002 0 .21800003 0 .21800003 .019000002 C .21800003 .030000002 .20900002 .031000002 .20200002 .031000002 C .17900002 .033 .15500002 .041 .15500002 .066 C .15500002 .078 .16100002 .089 .16900002 .10300001 L .245 .231 L .49600003 .231 C .49800007 .21000001 .512 .074 .512 .064 C .512 .034 .46000005 .031000002 .44000004 .031000002 C .42600004 .031000002 .41600005 .031000002 .41600005 .011000001 C .41600005 0 .42800004 0 .43000005 0 C .47100006 0 .514 .003 .555 .003 C .58 .003 .643 0 .668 0 C .674 0 .686 0 .686 .020000002 C .686 .031000002 .676 .031000002 .663 .031000002 C .601 .031000002 .601 .038000004 .598 .067 L .537 .69200006 C .535 .712 .535 .716 .518 .716 C .502 .716 .49800007 .70900008 .492 .69900009 L .14400001 .115 M .26400004 .26200003 L .46100004 .592 L .493 .26200003 L .26400004 .26200003 Z "/>
</symbol>
<use xlink:href="#font_0_1" transform="matrix(9.9626,0,0,-9.9626,7.9586899,14.659004)"/>
<symbol id="font_0_2">
<path d="M .11800001 .078 C .108 .039 .106 .031000002 .027000003 .031000002 C .009999998 .031000002 0 .031000002 0 .011000001 C 0 0 .009 0 .027000003 0 L .38400004 0 C .54200008 0 .66 .11800001 .66 .216 C .66 .28800003 .60200008 .34600003 .50500008 .35700003 C .609 .37600003 .71400007 .45000003 .71400007 .545 C .71400007 .619 .64800009 .683 .52800008 .683 L .192 .683 C .17300001 .683 .16300002 .683 .16300002 .66300007 C .16300002 .652 .17200002 .652 .19100002 .652 C .19300002 .652 .21200001 .652 .22900003 .65000006 C .24700001 .648 .256 .647 .256 .634 C .256 .63000008 .25500003 .62700006 .252 .615 L .11800001 .078 M .26900003 .36600004 L .33100004 .614 C .34000004 .64900007 .342 .652 .38500003 .652 L .51400008 .652 C .60200008 .652 .623 .59300008 .623 .549 C .623 .46100004 .53700008 .36600004 .41500003 .36600004 L .26900003 .36600004 M .224 .031000002 C .21000001 .031000002 .208 .031000002 .20200002 .032 C .192 .033 .18900001 .034 .18900001 .042000005 C .18900001 .045 .18900001 .047000003 .194 .065000008 L .263 .344 L .45200003 .344 C .54800006 .344 .56700006 .27 .56700006 .22700002 C .56700006 .128 .47800005 .031000002 .36 .031000002 L .224 .031000002 Z "/>
</symbol>
<use xlink:href="#font_0_2" transform="matrix(9.9626,0,0,-9.9626,47.98943,14.659004)"/>
<symbol id="font_0_3">
<path d="M .71000006 .71700009 C .71000006 .72 .708 .72700008 .699 .72700008 C .69600006 .72700008 .69500008 .7260001 .684 .71500006 L .614 .6380001 C .605 .65200009 .559 .72700008 .448 .72700008 C .22500001 .72700008 0 .50600007 0 .27400003 C 0 .109000008 .118000019 0 .271 0 C .358 0 .43400003 .040000004 .487 .086 C .58000007 .16800002 .597 .25900004 .597 .26200003 C .597 .272 .587 .272 .58500006 .272 C .579 .272 .574 .27 .572 .26200003 C .563 .23300001 .54 .162 .47100003 .104 C .402 .048 .33900003 .031000004 .287 .031000004 C .19700001 .031000004 .091000009 .083000008 .091000009 .23900001 C .091000009 .29600004 .112 .45800004 .21200003 .57500007 C .273 .646 .367 .69600006 .45600004 .69600006 C .558 .69600006 .61700007 .619 .61700007 .503 C .61700007 .46300004 .614 .46200005 .614 .45200003 C .614 .44200004 .625 .44200004 .629 .44200004 C .642 .44200004 .642 .44400005 .647 .46200005 L .71000006 .71700009 Z "/>
</symbol>
<use xlink:href="#font_0_3" transform="matrix(9.9626,0,0,-9.9626,48.18113,64.843189)"/>
<path transform="matrix(1,0,0,-1,31.619,36.238008)" stroke-width="1" stroke-linecap="butt" stroke-miterlimit="10" stroke-linejoin="miter" fill="none" stroke="#000000" d="M -15.17105 17.73378 L 13.15787 -17.42262 "/>
<path transform="matrix(.62921,.78085,.78085,-.62921,44.90222,53.816198)" stroke-width="1" stroke-linecap="round" stroke-linejoin="round" fill="none" stroke="#000000" d="M -2.07213 2.39091 C -1.69356 .95633 -.84995 .27893 0 0 C -.84995 -.27893 -1.69356 -.95633 -2.07213 -2.39091 "/>
<path transform="matrix(1,0,0,-1,31.619,36.238008)" stroke-width="1" stroke-linecap="butt" stroke-miterlimit="10" stroke-linejoin="miter" fill="none" stroke="#000000" d="M -12.04836 24.06984 L 11.06526 24.06984 "/>
<path transform="matrix(1,0,0,-1,42.88351,12.168167)" stroke-width="1" stroke-linecap="round" stroke-linejoin="round" fill="none" stroke="#000000" d="M -2.07213 2.39091 C -1.69356 .95633 -.84995 .27893 0 0 C -.84995 -.27893 -1.69356 -.95633 -2.07213 -2.39091 "/>
<symbol id="font_1_1">
<path d="M .24700001 .207 C .25800003 .206 .27 .206 .28100003 .206 C .46100004 .206 .62600007 .35300002 .62600007 .51100006 C .62600007 .6 .573 .657 .495 .657 C .35700003 .657 .284 .481 .256 .40600003 C .243 .36900003 .22100002 .29900003 .215 .28 C .105000007 .29500003 .034999998 .34500004 .034999998 .41900004 C .034999998 .42000003 .041 .532 .12200001 .62200006 C .12900001 .629 .13000001 .63100007 .13000001 .63500007 C .13000001 .647 .117 .647 .11400001 .647 C .105000007 .647 .100999999 .647 .082 .625 C .026 .556 0 .45200003 0 .409 C 0 .32 .065 .243 .194 .215 C .14400001 .060000004 .13800001 .040999995 .13800001 .03199999 C .13800001 .004999995 .161 0 .172 0 C .183 0 .20300001 .0069999995 .211 .022 C .218 .037 .227 .088 .24700001 .207 M .26000003 .275 C .28 .39000003 .28800003 .435 .33600004 .5 C .381 .56100007 .43400003 .58900007 .48400004 .58900007 C .55300006 .58900007 .59000006 .54300007 .59000006 .491 C .59000006 .39000003 .46400006 .27400003 .29200004 .27400003 C .28300003 .27400003 .26900003 .27400003 .26000003 .275 Z "/>
</symbol>
<use xlink:href="#font_1_1" transform="matrix(6.9738,0,0,-6.9738,29.18819,9.974343)"/>
</svg>
